<mxfile host="app.diagrams.net" agent="Mozilla/5.0 (Windows NT 10.0; Win64; x64) AppleWebKit/537.36 (KHTML, like Gecko) Chrome/128.0.0.0 Safari/537.36" version="24.7.10">
  <diagram name="第 1 页" id="ZZG_S8saaQvJlpgpFmc3">
    <mxGraphModel dx="2131" dy="1871" grid="1" gridSize="10" guides="1" tooltips="1" connect="1" arrows="1" fold="1" page="1" pageScale="1" pageWidth="827" pageHeight="1169" math="0" shadow="0">
      <root>
        <mxCell id="0" />
        <mxCell id="1" parent="0" />
        <mxCell id="g7YdieTVfXi8SgnCyptq-2" value="&lt;div style=&quot;&quot;&gt;&lt;pre style=&quot;font-family: &amp;quot;JetBrains Mono&amp;quot;, monospace; font-size: 9.8pt;&quot;&gt;Qwen2VisionTransformerPretrainedModel&lt;/pre&gt;&lt;/div&gt;" style="swimlane;whiteSpace=wrap;html=1;strokeColor=default;align=center;verticalAlign=middle;fontFamily=Helvetica;fontSize=12;fontColor=default;fontStyle=1;fillColor=default;" vertex="1" parent="1">
          <mxGeometry x="-10" y="-490" width="1090" height="1570" as="geometry" />
        </mxCell>
        <mxCell id="g7YdieTVfXi8SgnCyptq-4" value="&lt;div style=&quot;&quot;&gt;&lt;pre style=&quot;font-family: &amp;quot;JetBrains Mono&amp;quot;, monospace; font-size: 9.8pt;&quot;&gt;Qwen2VLVisionBlock&lt;/pre&gt;&lt;/div&gt;" style="swimlane;whiteSpace=wrap;html=1;" vertex="1" parent="g7YdieTVfXi8SgnCyptq-2">
          <mxGeometry x="470" y="420" width="490" height="850" as="geometry" />
        </mxCell>
        <mxCell id="g7YdieTVfXi8SgnCyptq-8" style="edgeStyle=orthogonalEdgeStyle;rounded=0;orthogonalLoop=1;jettySize=auto;html=1;entryX=0.5;entryY=1;entryDx=0;entryDy=0;" edge="1" parent="g7YdieTVfXi8SgnCyptq-4" source="g7YdieTVfXi8SgnCyptq-5" target="g7YdieTVfXi8SgnCyptq-6">
          <mxGeometry relative="1" as="geometry" />
        </mxCell>
        <mxCell id="g7YdieTVfXi8SgnCyptq-5" value="&lt;div style=&quot;&quot;&gt;&lt;pre style=&quot;font-family: &amp;quot;JetBrains Mono&amp;quot;, monospace; font-size: 9.8pt;&quot;&gt;LayerNorm&lt;/pre&gt;&lt;/div&gt;" style="rounded=1;whiteSpace=wrap;html=1;" vertex="1" parent="g7YdieTVfXi8SgnCyptq-4">
          <mxGeometry x="156" y="680" width="80" height="30" as="geometry" />
        </mxCell>
        <mxCell id="g7YdieTVfXi8SgnCyptq-6" value="&lt;div style=&quot;&quot;&gt;&lt;pre style=&quot;font-family: &amp;quot;JetBrains Mono&amp;quot;, monospace; font-size: 9.8pt;&quot;&gt;QWEN2_VL_VISION_ATTENTION&lt;/pre&gt;&lt;/div&gt;" style="swimlane;whiteSpace=wrap;html=1;startSize=23;" vertex="1" parent="g7YdieTVfXi8SgnCyptq-4">
          <mxGeometry x="31" y="460" width="330" height="165" as="geometry" />
        </mxCell>
        <mxCell id="g7YdieTVfXi8SgnCyptq-23" style="edgeStyle=orthogonalEdgeStyle;rounded=0;orthogonalLoop=1;jettySize=auto;html=1;entryX=0.5;entryY=1;entryDx=0;entryDy=0;" edge="1" parent="g7YdieTVfXi8SgnCyptq-4" source="g7YdieTVfXi8SgnCyptq-7" target="g7YdieTVfXi8SgnCyptq-20">
          <mxGeometry relative="1" as="geometry" />
        </mxCell>
        <mxCell id="g7YdieTVfXi8SgnCyptq-7" value="&lt;div style=&quot;&quot;&gt;&lt;pre style=&quot;font-family: &amp;quot;JetBrains Mono&amp;quot;, monospace; font-size: 9.8pt;&quot;&gt;VisionMlp&lt;/pre&gt;&lt;/div&gt;" style="swimlane;whiteSpace=wrap;html=1;" vertex="1" parent="g7YdieTVfXi8SgnCyptq-4">
          <mxGeometry x="31" y="130" width="330" height="110" as="geometry" />
        </mxCell>
        <mxCell id="g7YdieTVfXi8SgnCyptq-15" value="" style="group" vertex="1" connectable="0" parent="g7YdieTVfXi8SgnCyptq-4">
          <mxGeometry x="176" y="370" width="40" height="40" as="geometry" />
        </mxCell>
        <mxCell id="g7YdieTVfXi8SgnCyptq-12" value="" style="ellipse;whiteSpace=wrap;html=1;aspect=fixed;strokeWidth=4;" vertex="1" parent="g7YdieTVfXi8SgnCyptq-15">
          <mxGeometry width="40" height="40" as="geometry" />
        </mxCell>
        <mxCell id="g7YdieTVfXi8SgnCyptq-13" value="" style="endArrow=none;html=1;rounded=0;exitX=0;exitY=0.5;exitDx=0;exitDy=0;entryX=1;entryY=0.5;entryDx=0;entryDy=0;strokeWidth=4;" edge="1" parent="g7YdieTVfXi8SgnCyptq-15" source="g7YdieTVfXi8SgnCyptq-12" target="g7YdieTVfXi8SgnCyptq-12">
          <mxGeometry width="50" height="50" relative="1" as="geometry">
            <mxPoint x="125" y="75" as="sourcePoint" />
            <mxPoint x="150" y="50" as="targetPoint" />
          </mxGeometry>
        </mxCell>
        <mxCell id="g7YdieTVfXi8SgnCyptq-14" value="" style="endArrow=none;html=1;rounded=0;exitX=0.5;exitY=1;exitDx=0;exitDy=0;entryX=0.5;entryY=0;entryDx=0;entryDy=0;strokeWidth=4;" edge="1" parent="g7YdieTVfXi8SgnCyptq-15" source="g7YdieTVfXi8SgnCyptq-12" target="g7YdieTVfXi8SgnCyptq-12">
          <mxGeometry width="50" height="50" relative="1" as="geometry">
            <mxPoint x="5" y="25" as="sourcePoint" />
            <mxPoint x="45" y="25" as="targetPoint" />
          </mxGeometry>
        </mxCell>
        <mxCell id="g7YdieTVfXi8SgnCyptq-10" style="edgeStyle=orthogonalEdgeStyle;rounded=0;orthogonalLoop=1;jettySize=auto;html=1;entryX=0.5;entryY=1;entryDx=0;entryDy=0;" edge="1" parent="g7YdieTVfXi8SgnCyptq-4" source="g7YdieTVfXi8SgnCyptq-6" target="g7YdieTVfXi8SgnCyptq-12">
          <mxGeometry relative="1" as="geometry">
            <mxPoint x="201" y="420" as="targetPoint" />
          </mxGeometry>
        </mxCell>
        <mxCell id="g7YdieTVfXi8SgnCyptq-16" style="edgeStyle=orthogonalEdgeStyle;rounded=0;orthogonalLoop=1;jettySize=auto;html=1;entryX=0.5;entryY=1;entryDx=0;entryDy=0;" edge="1" parent="g7YdieTVfXi8SgnCyptq-4" source="g7YdieTVfXi8SgnCyptq-25" target="g7YdieTVfXi8SgnCyptq-7">
          <mxGeometry relative="1" as="geometry" />
        </mxCell>
        <mxCell id="g7YdieTVfXi8SgnCyptq-18" value="" style="group" vertex="1" connectable="0" parent="g7YdieTVfXi8SgnCyptq-4">
          <mxGeometry x="176" y="60" width="40" height="40" as="geometry" />
        </mxCell>
        <mxCell id="g7YdieTVfXi8SgnCyptq-20" value="" style="ellipse;whiteSpace=wrap;html=1;aspect=fixed;strokeWidth=4;" vertex="1" parent="g7YdieTVfXi8SgnCyptq-18">
          <mxGeometry width="40" height="40" as="geometry" />
        </mxCell>
        <mxCell id="g7YdieTVfXi8SgnCyptq-21" value="" style="endArrow=none;html=1;rounded=0;exitX=0;exitY=0.5;exitDx=0;exitDy=0;entryX=1;entryY=0.5;entryDx=0;entryDy=0;strokeWidth=4;" edge="1" parent="g7YdieTVfXi8SgnCyptq-18" source="g7YdieTVfXi8SgnCyptq-20" target="g7YdieTVfXi8SgnCyptq-20">
          <mxGeometry width="50" height="50" relative="1" as="geometry">
            <mxPoint x="125" y="75" as="sourcePoint" />
            <mxPoint x="150" y="50" as="targetPoint" />
          </mxGeometry>
        </mxCell>
        <mxCell id="g7YdieTVfXi8SgnCyptq-22" value="" style="endArrow=none;html=1;rounded=0;exitX=0.5;exitY=1;exitDx=0;exitDy=0;entryX=0.5;entryY=0;entryDx=0;entryDy=0;strokeWidth=4;" edge="1" parent="g7YdieTVfXi8SgnCyptq-18" source="g7YdieTVfXi8SgnCyptq-20" target="g7YdieTVfXi8SgnCyptq-20">
          <mxGeometry width="50" height="50" relative="1" as="geometry">
            <mxPoint x="5" y="25" as="sourcePoint" />
            <mxPoint x="45" y="25" as="targetPoint" />
          </mxGeometry>
        </mxCell>
        <mxCell id="g7YdieTVfXi8SgnCyptq-17" style="edgeStyle=orthogonalEdgeStyle;rounded=0;orthogonalLoop=1;jettySize=auto;html=1;exitX=0.5;exitY=0;exitDx=0;exitDy=0;entryX=1;entryY=0.5;entryDx=0;entryDy=0;" edge="1" parent="g7YdieTVfXi8SgnCyptq-4" source="g7YdieTVfXi8SgnCyptq-12" target="g7YdieTVfXi8SgnCyptq-20">
          <mxGeometry relative="1" as="geometry">
            <mxPoint x="381" y="160" as="targetPoint" />
            <Array as="points">
              <mxPoint x="196" y="340" />
              <mxPoint x="382" y="340" />
              <mxPoint x="382" y="80" />
            </Array>
          </mxGeometry>
        </mxCell>
        <mxCell id="g7YdieTVfXi8SgnCyptq-26" value="" style="edgeStyle=orthogonalEdgeStyle;rounded=0;orthogonalLoop=1;jettySize=auto;html=1;entryX=0.5;entryY=1;entryDx=0;entryDy=0;" edge="1" parent="g7YdieTVfXi8SgnCyptq-4" source="g7YdieTVfXi8SgnCyptq-12" target="g7YdieTVfXi8SgnCyptq-25">
          <mxGeometry relative="1" as="geometry">
            <mxPoint x="656" y="-50" as="sourcePoint" />
            <mxPoint x="656" y="-180" as="targetPoint" />
          </mxGeometry>
        </mxCell>
        <mxCell id="g7YdieTVfXi8SgnCyptq-25" value="&lt;div style=&quot;&quot;&gt;&lt;pre style=&quot;font-family: &amp;quot;JetBrains Mono&amp;quot;, monospace; font-size: 9.8pt;&quot;&gt;LayerNorm&lt;/pre&gt;&lt;/div&gt;" style="rounded=1;whiteSpace=wrap;html=1;" vertex="1" parent="g7YdieTVfXi8SgnCyptq-4">
          <mxGeometry x="156" y="290" width="80" height="30" as="geometry" />
        </mxCell>
        <mxCell id="g7YdieTVfXi8SgnCyptq-11" style="edgeStyle=orthogonalEdgeStyle;rounded=0;orthogonalLoop=1;jettySize=auto;html=1;exitX=0.5;exitY=0;exitDx=0;exitDy=0;" edge="1" parent="g7YdieTVfXi8SgnCyptq-2" source="g7YdieTVfXi8SgnCyptq-1">
          <mxGeometry relative="1" as="geometry">
            <mxPoint x="686" y="810" as="targetPoint" />
            <mxPoint x="665.9999999999995" y="1710" as="sourcePoint" />
            <Array as="points">
              <mxPoint x="666" y="1210" />
              <mxPoint x="911" y="1210" />
              <mxPoint x="911" y="810" />
            </Array>
          </mxGeometry>
        </mxCell>
        <mxCell id="g7YdieTVfXi8SgnCyptq-1" value="&lt;div style=&quot;&quot;&gt;&lt;pre style=&quot;font-family: &amp;quot;JetBrains Mono&amp;quot;, monospace; font-size: 9.8pt;&quot;&gt;PatchEmbed&lt;/pre&gt;&lt;/div&gt;" style="swimlane;whiteSpace=wrap;html=1;" vertex="1" parent="g7YdieTVfXi8SgnCyptq-2">
          <mxGeometry x="566" y="1360" width="200" height="170" as="geometry" />
        </mxCell>
        <mxCell id="g7YdieTVfXi8SgnCyptq-9" style="edgeStyle=orthogonalEdgeStyle;rounded=0;orthogonalLoop=1;jettySize=auto;html=1;entryX=0.5;entryY=1;entryDx=0;entryDy=0;" edge="1" parent="g7YdieTVfXi8SgnCyptq-2" source="g7YdieTVfXi8SgnCyptq-1" target="g7YdieTVfXi8SgnCyptq-5">
          <mxGeometry relative="1" as="geometry" />
        </mxCell>
        <mxCell id="g7YdieTVfXi8SgnCyptq-27" value="&lt;div style=&quot;&quot;&gt;&lt;pre style=&quot;font-family: &amp;quot;JetBrains Mono&amp;quot;, monospace; font-size: 9.8pt;&quot;&gt;PatchMerger&lt;/pre&gt;&lt;/div&gt;" style="swimlane;whiteSpace=wrap;html=1;" vertex="1" parent="g7YdieTVfXi8SgnCyptq-2">
          <mxGeometry x="470" y="90" width="500" height="220" as="geometry" />
        </mxCell>
        <mxCell id="g7YdieTVfXi8SgnCyptq-31" style="edgeStyle=orthogonalEdgeStyle;rounded=0;orthogonalLoop=1;jettySize=auto;html=1;" edge="1" parent="g7YdieTVfXi8SgnCyptq-27" source="g7YdieTVfXi8SgnCyptq-29" target="g7YdieTVfXi8SgnCyptq-30">
          <mxGeometry relative="1" as="geometry" />
        </mxCell>
        <mxCell id="g7YdieTVfXi8SgnCyptq-29" value="&lt;div style=&quot;&quot;&gt;&lt;pre style=&quot;font-family: &amp;quot;JetBrains Mono&amp;quot;, monospace; font-size: 9.8pt;&quot;&gt;LayerNorm&lt;/pre&gt;&lt;/div&gt;" style="rounded=1;whiteSpace=wrap;html=1;" vertex="1" parent="g7YdieTVfXi8SgnCyptq-27">
          <mxGeometry x="156" y="170" width="80" height="30" as="geometry" />
        </mxCell>
        <mxCell id="g7YdieTVfXi8SgnCyptq-34" style="edgeStyle=orthogonalEdgeStyle;rounded=0;orthogonalLoop=1;jettySize=auto;html=1;entryX=0.5;entryY=1;entryDx=0;entryDy=0;" edge="1" parent="g7YdieTVfXi8SgnCyptq-27" source="g7YdieTVfXi8SgnCyptq-30" target="g7YdieTVfXi8SgnCyptq-32">
          <mxGeometry relative="1" as="geometry" />
        </mxCell>
        <mxCell id="g7YdieTVfXi8SgnCyptq-30" value="&lt;div style=&quot;&quot;&gt;&lt;pre style=&quot;font-family: &amp;quot;JetBrains Mono&amp;quot;, monospace; font-size: 9.8pt;&quot;&gt;&lt;div style=&quot;&quot;&gt;&lt;pre style=&quot;font-family: &amp;quot;JetBrains Mono&amp;quot;, monospace; font-size: 9.8pt;&quot;&gt;Linear&lt;/pre&gt;&lt;/div&gt;&lt;/pre&gt;&lt;/div&gt;" style="rounded=1;whiteSpace=wrap;html=1;" vertex="1" parent="g7YdieTVfXi8SgnCyptq-27">
          <mxGeometry x="156" y="123" width="80" height="30" as="geometry" />
        </mxCell>
        <mxCell id="g7YdieTVfXi8SgnCyptq-35" style="edgeStyle=orthogonalEdgeStyle;rounded=0;orthogonalLoop=1;jettySize=auto;html=1;entryX=0.5;entryY=1;entryDx=0;entryDy=0;" edge="1" parent="g7YdieTVfXi8SgnCyptq-27" source="g7YdieTVfXi8SgnCyptq-32" target="g7YdieTVfXi8SgnCyptq-33">
          <mxGeometry relative="1" as="geometry" />
        </mxCell>
        <mxCell id="g7YdieTVfXi8SgnCyptq-32" value="&lt;div style=&quot;&quot;&gt;&lt;pre style=&quot;font-family: &amp;quot;JetBrains Mono&amp;quot;, monospace; font-size: 9.8pt;&quot;&gt;&lt;div style=&quot;&quot;&gt;&lt;pre style=&quot;font-family: &amp;quot;JetBrains Mono&amp;quot;, monospace; font-size: 9.8pt;&quot;&gt;&lt;div style=&quot;&quot;&gt;&lt;pre style=&quot;font-family: &amp;quot;JetBrains Mono&amp;quot;, monospace; font-size: 9.8pt;&quot;&gt;GELU&lt;/pre&gt;&lt;/div&gt;&lt;/pre&gt;&lt;/div&gt;&lt;/pre&gt;&lt;/div&gt;" style="rounded=1;whiteSpace=wrap;html=1;" vertex="1" parent="g7YdieTVfXi8SgnCyptq-27">
          <mxGeometry x="156" y="77" width="80" height="30" as="geometry" />
        </mxCell>
        <mxCell id="g7YdieTVfXi8SgnCyptq-33" value="&lt;div style=&quot;&quot;&gt;&lt;pre style=&quot;font-family: &amp;quot;JetBrains Mono&amp;quot;, monospace; font-size: 9.8pt;&quot;&gt;&lt;div style=&quot;&quot;&gt;&lt;pre style=&quot;font-family: &amp;quot;JetBrains Mono&amp;quot;, monospace; font-size: 9.8pt;&quot;&gt;Linear&lt;/pre&gt;&lt;/div&gt;&lt;/pre&gt;&lt;/div&gt;" style="rounded=1;whiteSpace=wrap;html=1;" vertex="1" parent="g7YdieTVfXi8SgnCyptq-27">
          <mxGeometry x="156" y="30" width="80" height="30" as="geometry" />
        </mxCell>
        <mxCell id="g7YdieTVfXi8SgnCyptq-19" style="edgeStyle=orthogonalEdgeStyle;rounded=0;orthogonalLoop=1;jettySize=auto;html=1;exitX=0.5;exitY=0;exitDx=0;exitDy=0;entryX=0.5;entryY=1;entryDx=0;entryDy=0;" edge="1" parent="g7YdieTVfXi8SgnCyptq-2" source="g7YdieTVfXi8SgnCyptq-20" target="g7YdieTVfXi8SgnCyptq-29">
          <mxGeometry relative="1" as="geometry">
            <mxPoint x="680" y="240" as="targetPoint" />
          </mxGeometry>
        </mxCell>
      </root>
    </mxGraphModel>
  </diagram>
</mxfile>
